<?xml version="1.0" encoding="UTF-8"?>
<svg xmlns="http://www.w3.org/2000/svg" viewBox="0 0 256 256" width="256" height="256">
  <title>Frigate Service</title>
  <defs>
    <linearGradient id="g" x1="0" y1="0" x2="1" y2="1">
      <stop offset="0" stop-color="#1f2937"/>
      <stop offset="1" stop-color="#0b1220"/>
    </linearGradient>
  </defs>
  <rect x="18" y="18" width="220" height="220" rx="44" fill="url(#g)"/>
  <!-- surveillance camera body -->
  <path d="M64 106c0-10 8-18 18-18h64c4 0 8 2 11 4l35 20c6 3 10 10 10 17v8c0 6-5 11-11 11h-16l-8 18c-3 6-9 10-16 10H95c-8 0-15-5-18-12l-10-25c-2-4-3-8-3-13v-20z" fill="#e5e7eb"/>
  <path d="M74 114h58c3 0 5 2 5 5v34c0 3-2 5-5 5H88c-6 0-11-3-13-9l-6-16c-2-5-1-11 1-15 1-2 3-4 4-4z" fill="#cbd5e1"/>
  <!-- lens -->
  <circle cx="120" cy="136" r="18" fill="#111827"/>
  <circle cx="120" cy="136" r="10" fill="#60a5fa"/>
  <circle cx="114" cy="130" r="3" fill="#ffffff" opacity="0.85"/>
  <!-- bracket/arm -->
  <path d="M170 162h30c6 0 10 5 10 10v6c0 6-4 10-10 10h-38c-5 0-9-3-10-8l-1-3" fill="#94a3b8"/>
  <path d="M176 184h40" stroke="#475569" stroke-width="8" stroke-linecap="round"/>
</svg>
